# xmcd
#
# Track frame offsets:
#	150
#	40612
#	103405
#	143378
#	176897
#	189844
#	231671
#
# Disc length: 4053
#
# Revision: 0
# Processed by: cddbd v1.5.1PL0 Copyright (c) Steve Scherf et al.
# Submitted via: Broken Cross Disk Manager 3.49.2055
#
DISCID=5b0fd307
DTITLE=Jochen Malmsheimer - Ich bin kein Tag für eine Nacht [CD1)
DYEAR=2004
DGENRE=comedy
TTITLE0=Des Künstlers Brot
TTITLE1=Zum Lobe des Dachdeckers
TTITLE2=Zyck, Zyck, Zyllis
TTITLE3=Kochen mit Jochen
TTITLE4=Abheben auf Englisch
TTITLE5=Abenteuer Fliegen
TTITLE6=Jugend trainiert für Olympia - heute: Schwimmen
EXTD=
EXTT0=
EXTT1=
EXTT2=
EXTT3=
EXTT4=
EXTT5=
EXTT6=
PLAYORDER=
